<?xml version="1.0" encoding="utf-8"?>
<!-- Generator: Adobe Illustrator 15.0.0, SVG Export Plug-In . SVG Version: 6.00 Build 0)  -->
<!DOCTYPE svg PUBLIC "-//W3C//DTD SVG 1.1//EN" "http://www.w3.org/Graphics/SVG/1.1/DTD/svg11.dtd">
<svg version="1.1" id="Layer_1" xmlns="http://www.w3.org/2000/svg" xmlns:xlink="http://www.w3.org/1999/xlink" x="0px" y="0px"
	 width="335.916px" height="126.056px" viewBox="0 0 335.916 126.056" enable-background="new 0 0 335.916 126.056"
	 xml:space="preserve">
<g>
	<g>
		<path fill="#004A7F" d="M146.735,67.583c0,0.846-0.083,1.943-0.34,2.621c-1.182-0.254-2.45-0.422-3.886-0.508
			c-1.436,9.887-12.591,22.982-22.224,25.432c-15.041-0.336-21.713-7.604-21.713-23.406c0-23.15,18.506-45.371,38.276-45.371
			c7.69,0,12.337,3.465,12.337,9.379c0,3.889-1.688,7.096-6.001,10.984c-2.617-0.762-4.734-2.961-5.151-5.49
			c3.885-2.877,5.238-4.816,5.238-8.111c0-2.537-1.689-3.893-4.65-3.893c-4.984,0-11.066,3.973-16.897,10.988
			c-8.364,9.969-11.996,20.191-11.996,33.461c0,9.799,4.223,16.729,9.543,17.236c7.183-1.605,15.124-12.336,16.055-20.447
			c-3.125,0.674-6.085,1.434-8.619,1.434c-3.378,0-6.085-1.775-7.013-4.729c3.972-2.197,16.983-5.324,22.308-5.324
			C144.959,61.839,146.735,63.953,146.735,67.583z"/>
		<path fill="#004A7F" d="M185.175,57.531c-4.563,9.461-7.691,19.432-7.691,25.182c0,3.127,0.678,5.32,2.2,6.164
			c-1.354,0.848-3.806,1.521-5.494,1.521c-3.041,0-4.563-2.029-4.563-6.252c0-3.131,1.098-7.689,3.211-13.182
			c-4.563,10.309-11.997,18.76-17.237,19.604c-4.143-0.17-7.013-4.395-7.013-10.223c0-12.592,12.166-29.828,21.292-30.336
			c2.28,0.59,6.083,4.561,6.335,6.676c-9.039,1.436-20.111,16.393-20.111,26.783c0,1.186,0.425,1.777,1.187,2.029
			c3.297-0.676,7.353-5.406,13.435-15.547c2.366-3.969,5.745-10.309,8.197-15.381C181.286,54.57,185.258,56.431,185.175,57.531z"/>
		<path fill="#004A7F" d="M193.029,56.349c-0.507-0.68-1.101-3.469-1.101-4.988c2.957,0.17,5.664,0.424,7.944,0.508
			c3.377-6.676,8.277-13.939,10.141-14.955c2.28,0,7.687,1.773,8.785,3.039c-3.378,4.225-5.491,7.52-8.278,12.254
			c2.196,0,4.563-0.084,6.93-0.338c0.504,0.504,0.925,1.436,0.925,2.367c-2.701,1.014-6.165,1.605-10.051,1.688
			c-5.577,10.816-8.958,21.801-8.958,28.73c0,2.533,1.014,3.889,2.789,4.139c3.379-0.424,6.503-1.771,8.87-3.635
			c0.257,0.424,0.51,0.932,0.594,1.27c-1.269,1.941-7.354,6-9.209,6.168c-5.578-0.168-12.001-4.984-12.001-8.955
			c0-5.496,3.125-16.9,7.434-27.291H193.029z"/>
		<path fill="#004A7F" d="M226.229,52.207c4.563-11.914,12.254-24.842,19.944-33.627c3.548,0,8.705,1.939,10.645,4.053
			c-8.448,8.617-15.462,17.826-19.434,25.604c-4.309,8.449-6.927,14.701-8.956,22.813c10.731-13.688,18.927-20.699,24.084-20.699
			c2.954,0,6.675,2.107,9.206,5.32c-6.927,7.607-15.799,23.324-15.799,27.887c0,1.098,0.254,1.436,1.352,1.436
			c1.688,0,2.704-0.676,2.957-0.676c0.508,0.842,0.592,1.1,0.592,1.35c0,0.848-6.422,3.889-8.195,3.889
			c-2.283,0-4.563-2.707-4.563-5.324c0-3.291,4.057-13.939,9.547-25.012c0-0.082-0.253-0.336-0.337-0.336
			c-0.337,0-2.113,1.098-3.295,2.029c-8.027,5.994-16.986,18.332-22.053,30.248c-0.338,0.762-1.182,1.602-1.606,1.602
			c-0.761,0-2.533-3.715-2.62-5.49C217.697,79.33,221.079,65.474,226.229,52.207z"/>
		<path fill="#004A7F" d="M286.055,64.796c-0.681-0.084-1.021-0.508-1.102-1.268c0-0.676,1.349-3.211,1.349-4.564
			c0-1.604-0.845-2.785-2.026-2.785c-4.479,0-6.927,5.826-6.927,16.643c0,0.678,0,0.848,0.084,1.014
			c2.363-0.082,4.142-0.166,5.911-0.166c0.087,0.166,0.087,0.25,0.087,0.674s-0.17,0.932-0.34,1.098
			c-5.237,1.182-5.658,1.355-5.658,2.621c0,0.848,0.08,1.691,0.08,3.041c0,9.379-5.487,15.461-14.533,16.393
			c-3.208-0.254-7.097-3.461-8.025-6.59c0-8.619,7.607-15.883,17.408-16.563c0-5.744-2.62-10.648-2.62-15.379
			c0-5.998,5.24-12.504,11.151-13.771c2.537,0.674,9.046,7.264,9.717,9.887C290.361,59.386,287.825,64.796,286.055,64.796z
			 M272.7,78.74c-4.396,0.59-11.659,7.939-11.659,11.828c0,1.27,0.588,2.281,1.686,3.041C268.133,91.414,272.7,84.566,272.7,78.74z"
			/>
		<path fill="#004A7F" d="M304.126,110.847c-5.15,5.408-10.812,8.361-16.306,8.361c-5.577,0-11.573-2.701-13.268-5.824
			c0-0.678,0.51-1.355,1.184-1.779c2.621,2.369,3.466,2.793,6.002,2.793c12.845,0,25.012-15.631,31.344-39.969
			c-2.874,4.564-9.039,14.113-14.276,15.969c-3.548-0.166-8.365-2.619-9.293-6.588c0-3.211,0.167-4.816,0.758-7.188
			c2.113-8.531,8.11-22.811,15.124-27.969c1.859,0,5.748,0.682,7.688,2.621c-1.266,1.098-5.912,7.523-10.982,19.523
			c-1.014,2.529-3.551,10.217-3.551,13.178c0,0.846,0.427,1.355,0.598,1.521c2.025-0.34,5.577-3.211,9.797-9.463
			c5.323-8.027,8.785-15.885,14.276-24.926c2.961,0,7.187,1.434,8.201,2.703c-3.465,7.352-6.593,14.449-8.959,21.803
			C317.395,92.087,312.328,102.312,304.126,110.847z"/>
	</g>
	<g>
		<g>
			<path fill="#FFFFFF" d="M40.769,6.42c-21.773,0-39.42,16.076-39.42,35.905c0,34.283,38.966,78.992,38.966,78.992
				s39.873-44.709,39.873-78.992C80.187,22.497,62.541,6.42,40.769,6.42L40.769,6.42z"/>
		</g>
		<g>
			<g>
				<path fill="#004A7F" d="M40.768,13.172c-18.306,0-33.143,13.721-33.143,30.646c0,29.262,32.761,67.421,32.761,67.421
					S73.909,73.08,73.909,43.818C73.909,26.893,59.073,13.172,40.768,13.172L40.768,13.172z"/>
			</g>
			<g opacity="0.23">
				<path fill="#FFFFFF" d="M40.631,111.06c0,0,33.116-37.897,33.279-67.058c0.105-19.136-15.136-30.521-33.279-30.521V111.06z"/>
			</g>
			<path fill="#FFFFFF" d="M51.037,43.67c0,5.886-4.77,10.655-10.652,10.655c-5.883,0-10.653-4.77-10.653-10.655
				c0-5.881,4.77-10.652,10.653-10.652C46.267,33.018,51.037,37.79,51.037,43.67z"/>
		</g>
	</g>
</g>
</svg>
